# Blender 4.0.2
# www.blender.org
mtllib shelf4.mtl
o Cube.001
v 25.754868 24.653894 16.784807
v 25.754868 25.346117 16.784807
v 25.754868 24.653893 -6.919546
v 25.754868 25.346115 -6.919548
v -25.134689 24.653894 16.784807
v -25.134689 25.346117 16.784807
v -25.134689 24.653893 -6.919546
v -25.134689 25.346115 -6.919548
vn 1.0000 -0.0000 -0.0000
vn -0.0000 -0.0000 -1.0000
vn -1.0000 -0.0000 -0.0000
vn -0.0000 -0.0000 1.0000
vn -0.0000 -1.0000 -0.0000
vn -0.0000 1.0000 -0.0000
vt 0.375000 0.000000
vt 0.375000 0.250000
vt 0.625000 0.250000
vt 0.625000 0.000000
vt 0.375000 0.500000
vt 0.625000 0.500000
vt 0.375000 0.750000
vt 0.625000 0.750000
vt 0.375000 1.000000
vt 0.625000 1.000000
vt 0.125000 0.500000
vt 0.125000 0.750000
vt 0.875000 0.750000
vt 0.875000 0.500000
s 0
f 1/1/1 3/2/1 4/3/1 2/4/1
f 3/2/2 7/5/2 8/6/2 4/3/2
f 7/5/3 5/7/3 6/8/3 8/6/3
f 5/7/4 1/9/4 2/10/4 6/8/4
f 3/11/5 1/12/5 5/7/5 7/5/5
f 8/6/6 6/8/6 2/13/6 4/14/6
o Cube.002
v 25.754868 49.653893 16.784805
v 25.754868 50.346115 16.784805
v 25.754868 49.653893 -6.919548
v 25.754868 50.346115 -6.919550
v -25.134689 49.653893 16.784805
v -25.134689 50.346115 16.784805
v -25.134689 49.653893 -6.919548
v -25.134689 50.346115 -6.919550
vn 1.0000 -0.0000 -0.0000
vn -0.0000 -0.0000 -1.0000
vn -1.0000 -0.0000 -0.0000
vn -0.0000 -0.0000 1.0000
vn -0.0000 -1.0000 -0.0000
vn -0.0000 1.0000 -0.0000
vt 0.375000 0.000000
vt 0.375000 0.250000
vt 0.625000 0.250000
vt 0.625000 0.000000
vt 0.375000 0.500000
vt 0.625000 0.500000
vt 0.375000 0.750000
vt 0.625000 0.750000
vt 0.375000 1.000000
vt 0.625000 1.000000
vt 0.125000 0.500000
vt 0.125000 0.750000
vt 0.875000 0.750000
vt 0.875000 0.500000
s 0
f 9/15/7 11/16/7 12/17/7 10/18/7
f 11/16/8 15/19/8 16/20/8 12/17/8
f 15/19/9 13/21/9 14/22/9 16/20/9
f 13/21/10 9/23/10 10/24/10 14/22/10
f 11/25/11 9/26/11 13/21/11 15/19/11
f 16/20/12 14/22/12 10/27/12 12/28/12
o Cube.003
v 25.202150 -0.497226 17.010363
v 25.770069 -0.497226 17.010363
v 25.202150 -0.497234 -6.949406
v 25.770069 -0.497234 -6.949406
v 25.202152 49.772148 17.010347
v 25.770071 49.772148 17.010347
v 25.202152 49.772148 -6.949421
v 25.770071 49.772148 -6.949421
vn -0.0000 -1.0000 -0.0000
vn -0.0000 -0.0000 -1.0000
vn -0.0000 1.0000 -0.0000
vn -0.0000 -0.0000 1.0000
vn -1.0000 -0.0000 -0.0000
vn 1.0000 -0.0000 -0.0000
vt 0.375000 0.000000
vt 0.375000 0.250000
vt 0.625000 0.250000
vt 0.625000 0.000000
vt 0.375000 0.500000
vt 0.625000 0.500000
vt 0.375000 0.750000
vt 0.625000 0.750000
vt 0.375000 1.000000
vt 0.625000 1.000000
vt 0.125000 0.500000
vt 0.125000 0.750000
vt 0.875000 0.750000
vt 0.875000 0.500000
s 0
f 17/29/13 19/30/13 20/31/13 18/32/13
f 19/30/14 23/33/14 24/34/14 20/31/14
f 23/33/15 21/35/15 22/36/15 24/34/15
f 21/35/16 17/37/16 18/38/16 22/36/16
f 19/39/17 17/40/17 21/35/17 23/33/17
f 24/34/18 22/36/18 18/41/18 20/42/18
o Cube.004
v -25.155727 -0.557030 17.004528
v -24.703608 -0.557030 17.004528
v -25.155727 -0.557038 -6.881601
v -24.703608 -0.557038 -6.881601
v -25.155725 49.712345 17.004513
v -24.703606 49.712345 17.004513
v -25.155725 49.712345 -6.881617
v -24.703606 49.712345 -6.881617
vn -0.0000 -1.0000 -0.0000
vn -0.0000 -0.0000 -1.0000
vn -0.0000 1.0000 -0.0000
vn -0.0000 -0.0000 1.0000
vn -1.0000 -0.0000 -0.0000
vn 1.0000 -0.0000 -0.0000
vt 0.375000 0.000000
vt 0.375000 0.250000
vt 0.625000 0.250000
vt 0.625000 0.000000
vt 0.375000 0.500000
vt 0.625000 0.500000
vt 0.375000 0.750000
vt 0.625000 0.750000
vt 0.375000 1.000000
vt 0.625000 1.000000
vt 0.125000 0.500000
vt 0.125000 0.750000
vt 0.875000 0.750000
vt 0.875000 0.500000
s 0
f 25/43/19 27/44/19 28/45/19 26/46/19
f 27/44/20 31/47/20 32/48/20 28/45/20
f 31/47/21 29/49/21 30/50/21 32/48/21
f 29/49/22 25/51/22 26/52/22 30/50/22
f 27/53/23 25/54/23 29/49/23 31/47/23
f 32/48/24 30/50/24 26/55/24 28/56/24
o Cube.006
v 25.521507 50.342010 17.100691
v 25.521507 50.342010 16.408466
v 25.521507 -0.680016 17.100697
v 25.521507 -0.680016 16.408472
v -25.032290 50.342010 17.100691
v -25.032290 50.342010 16.408466
v -25.032290 -0.680016 17.100697
v -25.032290 -0.680016 16.408472
vn 1.0000 -0.0000 -0.0000
vn -0.0000 -1.0000 -0.0000
vn -1.0000 -0.0000 -0.0000
vn -0.0000 1.0000 -0.0000
vn -0.0000 -0.0000 1.0000
vn -0.0000 -0.0000 -1.0000
vt 0.375000 0.000000
vt 0.375000 0.250000
vt 0.625000 0.250000
vt 0.625000 0.000000
vt 0.125000 0.500000
vt 0.375000 0.500000
vt 0.625000 0.500000
vt 0.875000 0.500000
vt 0.375000 0.750000
vt 0.625000 0.750000
vt 0.375000 1.000000
vt 0.625000 1.000000
vt 0.125000 0.750000
vt 0.875000 0.750000
s 0
f 33/57/25 35/58/25 36/59/25 34/60/25
f 35/61/26 39/62/26 40/63/26 36/64/26
f 39/62/27 37/65/27 38/66/27 40/63/27
f 37/65/28 33/67/28 34/68/28 38/66/28
f 35/61/29 33/69/29 37/65/29 39/62/29
f 40/63/30 38/66/30 34/70/30 36/64/30
o Cube.005
v 25.754868 -0.610413 16.784817
v 25.754868 0.081811 16.784817
v 25.754868 -0.610421 -6.919537
v 25.754868 0.081803 -6.919537
v -25.134689 -0.610413 16.784817
v -25.134689 0.081811 16.784817
v -25.134689 -0.610421 -6.919537
v -25.134689 0.081803 -6.919537
vn 1.0000 -0.0000 -0.0000
vn -0.0000 -0.0000 -1.0000
vn -1.0000 -0.0000 -0.0000
vn -0.0000 -0.0000 1.0000
vn -0.0000 -1.0000 -0.0000
vn -0.0000 1.0000 -0.0000
vt 0.375000 0.000000
vt 0.375000 0.250000
vt 0.625000 0.250000
vt 0.625000 0.000000
vt 0.375000 0.500000
vt 0.625000 0.500000
vt 0.375000 0.750000
vt 0.625000 0.750000
vt 0.375000 1.000000
vt 0.625000 1.000000
vt 0.125000 0.500000
vt 0.125000 0.750000
vt 0.875000 0.750000
vt 0.875000 0.500000
s 0
f 41/71/31 43/72/31 44/73/31 42/74/31
f 43/72/32 47/75/32 48/76/32 44/73/32
f 47/75/33 45/77/33 46/78/33 48/76/33
f 45/77/34 41/79/34 42/80/34 46/78/34
f 43/81/35 41/82/35 45/77/35 47/75/35
f 48/76/36 46/78/36 42/83/36 44/84/36
